PathFileType	4	(X/Y/Z)	pose_F01_0-96.trc
DataRate	CameraRate	NumFrames	NumMarkers	Units	OrigDataRate	OrigDataStartFrame	OrigNumFrames
30	30	9	21	m	30	48	96
Frame#	Time	CHip			RHip			RKnee			RAnkle			RBigToe			RSmallToe			RHeel			LHip			LKnee			LAnkle			LBigToe			LSmallToe			LHeel			Neck			Nose			RShoulder			RElbow			RWrist			LShoulder			LElbow			LWrist			
		X1	Y1	Z1	X2	Y2	Z2	X3	Y3	Z3	X4	Y4	Z4	X5	Y5	Z5	X6	Y6	Z6	X7	Y7	Z7	X8	Y8	Z8	X9	Y9	Z9	X10	Y10	Z10	X11	Y11	Z11	X12	Y12	Z12	X13	Y13	Z13	X14	Y14	Z14	X15	Y15	Z15	X16	Y16	Z16	X17	Y17	Z17	X18	Y18	Z18	X19	Y19	Z19	X20	Y20	Z20	X21	Y21	Z21	
48	1.6	-0.11643659005274598	1.8268605096733028	-0.657886477211714	-0.13774662670546578	1.8237676314091582	-0.6092577483609334	-0.1452199752694039	1.6998221346480131	-0.6026353615918713	-0.14267958918005033	1.5716208138317675	-0.5764261005644149	-0.1792880864920429	1.5419716071454397	-0.6161731131078549	-0.1819451258939802	1.5431152781314836	-0.5932225407172593	-0.13414504720348633	1.5585382192761745	-0.5756147661271334	-0.08943581598564966	1.8299046636151501	-0.7079893993991335	-0.09583379233143081	1.7022574353298368	-0.6936427198739519	-0.09436994194478622	1.587180446831118	-0.6583444793818266	-0.21629066415131473	1.4914045530291176	-1.1708839916344334	-0.20108091996483088	1.4969832490622539	-1.1923863829270813	-0.09792156526130075	1.566798024823186	-0.6463806717758341	-0.10435164894701691	1.9857899929018292	-0.6716664940987157	-0.1300405397760762	2.030258145810739	-0.7156803556084531	-0.14045141357304775	1.9851492643950317	-0.6078116663176641	-0.18958176755391923	1.9283767887810914	-0.5550876710861172	-0.26004257889385224	1.8846241329095272	-0.5248160267629446	-0.06536482006239282	1.9866847999591668	-0.7419560850788067	-0.056166840994233226	1.9202204461854806	-0.7966956097633884	-1.3050482240136068	1.8767061131667566	0.47767161381841416
49	1.6333333333333333	-0.11393381750013416	1.8295925165720452	-0.6607303587626472	-0.13728501284827524	1.8262678669632635	-0.6097690653164061	-0.14205370953763377	1.6987991624996035	-0.6017206572061072	-0.14268935351961853	1.5716426731227762	-0.5763532704810455	-0.17734358813013448	1.54199583883489	-0.6096082861901768	-0.18032365822270158	1.5449176948421683	-0.5863578656338255	-0.1344095584178891	1.5599262664612918	-0.57529209517224	-0.08783732109640127	1.8314893318528618	-0.713834883031635	-0.09982204581447994	1.7032975308802027	-0.6978787002547738	-0.2383315668302149	1.5176614270060131	-1.2208750941505297	-0.21484360947103848	1.4909382128673585	-1.1791061867722223	-0.20279438459398194	1.4960495524601858	-1.1991171845350046	-0.2505795872361543	1.5061692692925555	-1.212806568956864	-0.10444306689155199	1.9844643399743738	-0.6715707470140676	-0.11831958640170862	2.029122187298837	-0.7355538387971932	-1.7093786725771563	1.890205155135202	1.1107844186739633	-0.19069937584410226	1.9208643882290275	-0.5484971069772164	-0.25270583512897316	1.8792509642883908	-0.5188906838392969	-0.06316208023458628	1.9871791156360987	-0.7441003698314903	-0.055909161886891975	1.9229303036845873	-0.796849547244114	-0.0954132456767581	1.9816289975931534	-0.772232013943262
50	1.6666666666666667	-0.10969491353362824	1.8346231368732888	-0.6574576268220438	-0.13440366718453292	1.8311040660809128	-0.6131546889750799	-0.1417874669372927	1.7000661776327426	-0.6021941656341147	-0.1429755797089821	1.5703092929437892	-0.575845438100559	-0.18017934452234	1.541866158390589	-0.6194874356033626	-0.18218913753505422	1.5443936367096787	-0.59297693189267	-0.13734529609236515	1.5570575743516195	-0.5760002342737174	-0.08496508261211833	1.8352182065847753	-0.7049522538571322	-0.09543142301524285	1.7010903271313242	-0.6815002398982912	-0.10089362927818263	1.5832750976866374	-0.6507438182370757	-0.2133173194535442	1.4874898809483057	-1.1852146752445938	-0.20283841014442627	1.4959105140330125	-1.199208347361128	-0.10569268930910435	1.558751055012561	-0.6329713315547517	-0.1043794338906506	1.9860266507388595	-0.6714878938876334	-0.10780728702640122	2.0297007915314174	-0.7504419026028379	-1.7085353077259828	1.8902401783916147	1.1099287912223863	-0.1765206828627953	1.9176645681981455	-0.54638352037204	-0.24031853670924197	1.8949441586006566	-0.5435077983389014	-0.06523448871571483	1.9890060869808064	-0.7416963659521847	-0.0528362158833377	1.9272041511769733	-0.7967525862947592	-0.08016751985653475	1.9754780973455135	-0.7893410845675587
51	1.7	-0.11159933351627445	1.8351450254437722	-0.6638566538509348	-0.1356011856331049	1.831751652697321	-0.6163388671581536	-0.14871406139232624	1.7028904007544616	-0.6162923126761769	-0.14274531436784157	1.5717333186548732	-0.5764258888260866	-0.1801204874853163	1.5418811021838101	-0.6195758566941829	-0.1831448150993925	1.544518531942143	-0.5962085660335099	-0.136226964777363	1.5614839184744314	-0.5737596487024421	-0.08520281005722312	1.8353441205167125	-0.7049569997214011	-0.09219731658002184	1.702403990892827	-0.6810935716327082	-0.09855158632592721	1.5826098501419583	-0.6529909627959786	-0.21240561874351693	1.487706470904452	-1.1819671561898344	-0.2004926235802699	1.4938932088711419	-1.202908263103202	-0.10535942467433046	1.56025341018327	-0.6333468879087364	-0.10146638966153378	1.9870998357814857	-0.6711885869754879	-0.10091230843264162	2.031496660639298	-0.7575175123472081	-1.7096265383743336	1.890050088922718	1.111260710349723	-0.1762403211781614	1.9200854479418912	-0.546636062826118	-0.2405107136752581	1.9077828608489231	-0.5539814666505588	-0.062315132509435434	1.990455486367536	-0.7413105105053949	-0.04963972266192701	1.9265246012000032	-0.7958685663735688	-0.07324589992689955	1.9776503188020822	-0.7970208257956425
52	1.7333333333333334	-0.10999759651478482	1.832442513466002	-0.657113037995458	-0.13490709900619197	1.830472575319602	-0.6129235499987311	-0.14968664612315383	1.7056708577265733	-0.6200358818887084	-0.14845174108150533	1.5764618800702452	-0.5710281852444785	-0.17912022170897499	1.5447687185012933	-0.6166905105303556	-0.18425507055209048	1.5468599964982432	-0.5909776671959618	-0.13743643063154906	1.5665728825505578	-0.5686804855670825	-0.08294863151624873	1.8342810356357522	-0.7071055031428051	-0.094817741236877	1.7016753588482536	-0.6904865337257395	-0.09855682605669465	1.5838047521784453	-0.6528170950304684	-0.21243047714410931	1.4894826844037459	-1.1815345866194997	-0.2003121754474985	1.4948992521499507	-1.2017436588590868	-0.1014161985094933	1.5610788215697764	-0.6286256508556708	-0.10172225333044682	1.985347979390934	-0.6825063974914819	-0.09633673717816281	2.033555496529759	-0.7622030961912949	-0.14226445028333232	1.9834394539980837	-0.6143488367717488	-0.18701210101380802	1.9196374088942316	-0.5355620404729459	-0.2511005343003007	1.8909354752958243	-0.4971299996966174	-0.06375771828616664	1.9877798934324018	-0.7473957699724694	-0.05206775238609717	1.9260290929464945	-0.805353742111916	-0.0689475642510223	1.9773510730479558	-0.8020672509975624
53	1.7666666666666666	-0.1092676515303672	1.8363947163946879	-0.654241456659889	-0.135205939711103	1.8333386210601617	-0.6133030641666853	-0.15552530949777663	1.7012387686117614	-0.6089983997433012	-0.15758308281860392	1.570892693291516	-0.5604320019489669	-0.18542366578797412	1.5416528615180465	-0.6183400642590264	-0.18963700385966573	1.5435248786454079	-0.5897550263562976	-0.14877443476795368	1.5590358403667113	-0.5600268218738326	-0.0837206241639579	1.8362957981341002	-0.6986216334383474	-0.0922803603173557	1.703230717645875	-0.6810403620810864	-0.09621065605786934	1.582342488466144	-0.6552552000289393	-0.20902162085392448	1.4881266261383697	-1.1824071871241613	-0.19941319643295385	1.495100658143276	-1.1998018471447063	-0.10050968791457691	1.5599910756351694	-0.6260147703194884	-0.10016266700228306	1.9864037200730167	-0.6765386777787818	-0.09340819638797064	2.032523487033777	-0.7614986061584966	-0.14301554385057139	1.9860986159276437	-0.6178563580739931	-0.185328064406498	1.9286434104461583	-0.5396711622878324	-0.2478184408308274	1.8937234127057445	-0.5051103493323249	-0.06239506971724827	1.9861612743080195	-0.7410563418001763	-0.050816210930561476	1.925668030838862	-0.7873312231738975	-0.06449131466739874	1.9743315053308985	-0.8064163170509195
54	1.8	-0.10805761530534506	1.8378478871058763	-0.6512992582069776	-0.1344579148029246	1.8339961969820708	-0.613648207933951	-0.15524100456626377	1.7023826998616616	-0.6091422683108902	-0.15538276804439496	1.5697548574834952	-0.5627225770061268	-0.18448086812603678	1.5415561735247274	-0.6150513689397643	-0.18966917925525192	1.5407279009474129	-0.5894888999343476	-0.14851099584259364	1.5576277728982293	-0.560310449123665	-0.0834406343692728	1.8394470598979376	-0.6989623878692527	-0.09142901892873499	1.7023479844655052	-0.6777357495260237	-0.09619138311241845	1.5821906509242594	-0.6553438482919048	-0.20912115244678287	1.488165477526319	-1.1822630038855384	-0.1994433718373743	1.496809447153391	-1.1994975870689388	-0.10202351951242411	1.5614483757795268	-0.6412984884762775	-0.10160948919619511	1.9862738369342916	-0.6711945839040587	-0.0930678861221596	2.0355652122164876	-0.7614634552954648	-0.14301970691570334	1.9850664206303077	-0.6173610322690445	-0.1864600429417589	1.9214640286967475	-0.5442510921366972	-0.25753947850669984	1.8930626948787674	-0.5548260873073645	-0.06388448727705885	1.9889608492534974	-0.7359196395082662	-0.049447503637478366	1.9248857723451727	-0.7806698168776322	-0.07079949981128113	1.9772194970649786	-0.7989434048557821
55	1.8333333333333333	-0.11038904380854543	1.8362504439316112	-0.6486337668008303	-0.13678958065450628	1.8323965585191853	-0.6110395907581146	-0.1560658394659486	1.7023704363090844	-0.6041217453032703	-0.15445548178426585	1.5697863185263297	-0.5594780287940386	-0.18407296539263512	1.539995820037862	-0.602213202612204	-0.19103194729597878	1.5416396568924962	-0.5838820770708248	-0.14675849541083563	1.5608907943121673	-0.5540152586811737	-0.08341783105959989	1.8383491787441533	-0.6986467642554856	-0.09222543149020908	1.7030329977930583	-0.6810246806531237	-0.09530718238566205	1.5854715123756777	-0.6525481572016996	-0.21712487408423645	1.493812724739587	-1.1750816114984193	-0.20268459290735968	1.5000654633018287	-1.1999364003498572	-0.09813867603464374	1.568017832358131	-0.6377646275861891	-0.1037822821907389	1.9877426990552851	-0.6691815597842521	-0.09095936390755195	2.034943823886267	-0.7636921298845204	-0.14303535378189505	1.9855185880266786	-0.6173752990601094	-0.19095851295993455	1.921708677384735	-0.5605620970484742	-0.26570344060673784	1.8941968921863004	-0.5633024788911704	-0.06414113915696378	1.9890963282044276	-0.7360288654770684	-0.04667132017552698	1.9258369690406376	-0.7555352119526813	-0.07159894658801916	1.9786804580365105	-0.7962832717190991
56	1.8666666666666667	-0.11348500938794485	1.8367259491442542	-0.6463930189242634	-0.13994511458786207	1.8343542224116836	-0.6085816182977966	-0.1558236851950241	1.7005616115004425	-0.5999030795695631	-0.1574568683880974	1.5671086989390632	-0.56022595329094	-0.1879799338202241	1.5387628634383184	-0.6069146682947921	-0.19140312671566215	1.5378654644986223	-0.5877550174519073	-0.14889311597100266	1.5565783217839764	-0.5596520826326484	-0.0871952146971012	1.8382369792585038	-0.6996191852032765	-0.09272029130957914	1.7022326728068196	-0.6928532570874055	-0.09181112484804638	1.586117476863613	-0.6521686045477046	-0.2148241113251419	1.4947229369772894	-1.1785664225603747	-0.20027261742904257	1.4997026158513318	-1.2037904685218863	-0.09069774759283489	1.5687029167877051	-0.6329801613054169	-0.1015494620514702	1.9857565573306246	-0.6710272922894336	-0.08932882920007473	2.0360356789081844	-0.7574795698135187	-1.6885381527415886	1.8904368041243167	1.07473915228351	-0.19220967118872986	1.9256435615038794	-0.5646512060154485	-0.2618147265010639	1.8900858450490343	-0.5500851123829349	-0.061915721877434056	1.9856821310178057	-0.72647257264847	-0.05238102273312528	1.9241279177144766	-0.7814699340012818	-0.0723983933647572	1.9801414190080424	-0.7936231385824162
